<?xml version="1.0" encoding="utf-8"?>
<!-- Generator: Adobe Illustrator 23.1.0, SVG Export Plug-In . SVG Version: 6.00 Build 0)  -->
<svg version="1.1" xmlns="http://www.w3.org/2000/svg" xmlns:xlink="http://www.w3.org/1999/xlink" x="0px" y="0px"
	 viewBox="0 0 800 800" style="enable-background:new 0 0 800 800;" xml:space="preserve">
<style type="text/css">
	.st0{fill:#F3F3F3;}
	.st1{fill:#FFFFFF;}
	.st2{fill:#838383;}
	.st3{fill:none;stroke:#838383;stroke-width:6;stroke-linecap:round;stroke-linejoin:round;stroke-miterlimit:10;}
</style>
<g id="暂无内容">
</g>
<g id="图层_2">
</g>
<g id="图层_3">
	<g>
		<g>
			<g>
				<g>
					<circle class="st0" cx="672.32" cy="171.47" r="19.78"/>
				</g>
			</g>
			<g>
				<g>
					<circle class="st0" cx="104.21" cy="623.27" r="19.78"/>
				</g>
			</g>
			<g>
				<g>
					<path class="st0" d="M225.33,685.27c-7.38,0-13.38-6-13.38-13.38c0-7.38,6-13.38,13.38-13.38c7.38,0,13.38,6,13.38,13.38
						C238.71,679.27,232.71,685.27,225.33,685.27z M225.33,664.94c-3.83,0-6.95,3.12-6.95,6.95c0,3.83,3.12,6.95,6.95,6.95
						c3.83,0,6.95-3.12,6.95-6.95C232.29,668.06,229.17,664.94,225.33,664.94z"/>
				</g>
			</g>
			<g>
				<g>
					<path class="st0" d="M603.76,112.13h-19.98V92.16c0-3.66-2.96-6.62-6.62-6.62c-3.66,0-6.62,2.96-6.62,6.62v19.98h-19.98
						c-3.66,0-6.62,2.96-6.62,6.62c0,3.66,2.96,6.62,6.62,6.62h19.98v19.98c0,3.66,2.96,6.62,6.62,6.62c3.66,0,6.62-2.96,6.62-6.62
						v-19.98h19.98c3.66,0,6.62-2.96,6.62-6.62C610.38,115.1,607.42,112.13,603.76,112.13z"/>
				</g>
			</g>
			<g>
				<g>
					<path class="st0" d="M661.34,689.17H646.5v-14.84c0-3.04-2.47-5.51-5.51-5.51c-3.04,0-5.51,2.47-5.51,5.51v14.84h-14.84
						c-3.04,0-5.51,2.47-5.51,5.51s2.47,5.51,5.51,5.51h14.84v14.84c0,3.04,2.47,5.51,5.51,5.51c3.04,0,5.51-2.47,5.51-5.51v-14.84
						h14.84c3.04,0,5.51-2.47,5.51-5.51S664.38,689.17,661.34,689.17z"/>
				</g>
			</g>
			<g>
				<g>
					<path class="st0" d="M126.27,127.58c8.7,8.7,22.82,8.7,31.52,0l0,0c8.7-8.7,8.7-22.82,0-31.52l-6.66-6.66
						c-8.7-8.7-22.82-8.7-31.52,0h0c-8.7,8.7-8.7,22.82,0,31.52L126.27,127.58z"/>
				</g>
			</g>
			<g>
				<g>
					<path class="st0" d="M241,119.52c3.97,3.97,10.41,3.97,14.38,0c3.97-3.97,3.97-10.41,0-14.38l-10.01-10.01
						c-3.97-3.97-10.41-3.97-14.38,0c-3.97,3.97-3.97,10.41,0,14.38L241,119.52z"/>
				</g>
			</g>
			<g>
				<g>
					<path class="st0" d="M89.92,320.24c3.97,3.97,10.41,3.97,14.38,0h0c3.97-3.97,3.97-10.41,0-14.38L94.3,295.85
						c-3.97-3.97-10.41-3.97-14.38,0c-3.97,3.97-3.97,10.41,0,14.38L89.92,320.24z"/>
				</g>
			</g>
			<g>
				<g>
					<path class="st0" d="M617.89,627.71c-3.97-3.97-10.41-3.97-14.38,0c-3.97,3.97-3.97,10.41,0,14.38l10.01,10.01
						c3.97,3.97,10.41,3.97,14.38,0c3.97-3.97,3.97-10.41,0-14.38L617.89,627.71z"/>
				</g>
			</g>
			<g>
				<g>
					<circle class="st0" cx="705.5" cy="636.2" r="32.77"/>
				</g>
			</g>
			<g>
				<g>
					<path class="st0" d="M706.15,484.24l-31.51-31.51l-19.97-21.27c-5.17-5.43-5.24-13.94-0.16-19.46v0
						c5.55-6.03,15.04-6.14,20.72-0.23l4.04,4.41l9.32,9.32c5.41,5.41,14.29,5.82,19.8,0.51c5.61-5.41,5.68-14.35,0.19-19.84
						l-18.63-18.63c-6.88-6.88-11.36-15.82-12.66-25.46c-18.22-135.39-134.2-239.79-274.58-239.79c-4.79,0-9.55,0.13-14.28,0.37
						c-5.11,0.26-10.1-1.61-13.71-5.23l-19.14-19.14c-8.55-8.55-22.47-9.18-31.32-0.94c-9.29,8.65-9.48,23.19-0.59,32.09l3.34,3.34
						l10.41,10.94c6.54,6.92,5.57,18-2.08,23.68c-6.51,4.83-14.68,3.26-20.19-2.69l-20.69-20.46l-18.04-18.04
						c-3.83-3.83-10.06-4.28-14.13-0.71c-4.46,3.92-4.62,10.71-0.49,14.84l13.14,13.14l8.56,8.24c8.7,8.52,8.89,21.8,0.24,30.36l0,0
						c-8.59,8.49-22.45,8.38-30.89-0.26l-14.74-15.33l-35.31-35.31c-8.7-8.7-22.82-8.7-31.52,0h0c-8.7,8.7-8.7,22.82,0,31.52
						l25.61,25.69l8.98,8.38c8.49,8.43,8.69,22.09,0.45,30.76l0,0c-8.82,9.29-23.69,9.11-32.28-0.4l-4.96-5.44l-15.36-15.44
						c-12.62-12.62-33.2-13.4-46.16-1.12c-13.45,12.73-13.67,33.97-0.66,46.98l37.34,37.33l17.8,17.59
						c6.71,6.64,6.5,17.55-0.46,23.93l0,0c-6.58,6.03-16.76,5.75-22.99-0.63l-5.35-5.55l-8.11-8.11c-3.97-3.97-10.41-3.97-14.38,0h0
						c-5.06,4.2-3.69,10.69,0.06,14.44l17.79,17.79l36.99,36.09c6.38,6.22,6.41,16.47,0.08,22.73l0,0
						c-6.18,6.11-16.12,6.15-22.34,0.08l-17.67-17.24L99.68,374.6c-5.41-5.41-14.29-5.82-19.8-0.51
						c-5.61,5.41-5.68,14.35-0.19,19.84l43.89,43.89c3.55,3.55,5.91,8.11,6.84,13.05c23.49,124.93,130.8,220.27,261.3,225.36
						c7.2,0.28,14.06,3.16,19.28,8.14c8.46,8.08,20.27,19.34,20.27,19.34c8.55,8.55,22.47,9.18,31.32,0.94
						c9.29-8.65,9.48-23.19,0.59-32.09l-2.26-2.26l-9.81-10.24c-5.59-6.06-5.03-15.55,1.23-20.92h0c5.93-5.08,14.81-4.58,20.13,1.13
						l20.22,21.22l22.02,22.02c8.9,8.89,23.44,8.7,32.09-0.58c8.24-8.84,7.6-22.77-0.94-31.32l-9.5-9.5c0,0-3.02-3.11-6.89-7.09
						c-9.03-9.28-8.71-24.16,0.7-33.05l0.48-0.45c9.02-8.52,23.15-8.43,32.07,0.2l13.82,13.38l5.91,5.91
						c3.83,3.83,10.07,4.28,14.13,0.71c4.46-3.92,4.62-10.71,0.49-14.84l-5.15-5.15c-0.94,0.44-20.83-20.04-32.63-32.32
						c-4.75-4.94-4.56-12.79,0.41-17.5h0c4.95-4.69,12.77-4.47,17.45,0.48l31.03,32.82l14.15,14.15
						c12.62,12.62,33.19,13.4,46.16,1.13c13.45-12.73,13.67-33.97,0.66-46.98l-22.57-22.57l-11.4-12.43
						c-5.57-6.02-5.32-15.38,0.56-21.1v0c6.11-5.94,15.92-5.64,21.67,0.65l2.92,3.4l14.64,14.65c8.9,8.9,23.44,8.7,32.09-0.58
						C715.33,506.71,714.7,492.79,706.15,484.24z"/>
				</g>
			</g>
			<g>
				<g>
					<path class="st1" d="M433.65,203.26h-14.84v-14.84c0-3.04-2.47-5.51-5.51-5.51c-3.04,0-5.51,2.47-5.51,5.51v14.84h-14.84
						c-3.04,0-5.51,2.47-5.51,5.51s2.47,5.51,5.51,5.51h14.84v14.84c0,3.04,2.47,5.51,5.51,5.51c3.04,0,5.51-2.47,5.51-5.51v-14.84
						h14.84c3.04,0,5.51-2.47,5.51-5.51S436.69,203.26,433.65,203.26z"/>
				</g>
			</g>
			<g>
				<g>
					<path class="st1" d="M589.4,421.8c-7.38,0-13.38-6-13.38-13.38s6-13.38,13.38-13.38c7.38,0,13.38,6,13.38,13.38
						S596.78,421.8,589.4,421.8z M589.4,401.47c-3.83,0-6.95,3.12-6.95,6.95c0,3.83,3.12,6.95,6.95,6.95c3.83,0,6.95-3.12,6.95-6.95
						C596.36,404.59,593.24,401.47,589.4,401.47z"/>
				</g>
			</g>
			<g>
				<g>
					<path class="st1" d="M226.75,523.84c-7.38,0-13.38-6-13.38-13.38s6-13.38,13.38-13.38s13.38,6,13.38,13.38
						S234.13,523.84,226.75,523.84z M226.75,503.51c-3.83,0-6.95,3.12-6.95,6.95c0,3.83,3.12,6.95,6.95,6.95
						c3.83,0,6.95-3.12,6.95-6.95C233.71,506.63,230.59,503.51,226.75,503.51z"/>
				</g>
			</g>
		</g>
		<g>
			<g>
				<g>
					<path class="st1" d="M555.3,581.74H258.11c-19.39,0-35.12-15.72-35.12-35.12V378.51c0-19.39,15.72-35.12,35.12-35.12H555.3
						c19.39,0,35.12,15.72,35.12,35.12v168.12C590.41,566.02,574.69,581.74,555.3,581.74z"/>
				</g>
			</g>
			<g>
				<g>
					<path class="st2" d="M555.3,584.74H258.1c-21.02,0-38.12-17.1-38.12-38.12V378.51c0-21.02,17.1-38.12,38.12-38.12H555.3
						c21.02,0,38.12,17.1,38.12,38.12v168.12C593.41,567.64,576.32,584.74,555.3,584.74z M258.1,346.39
						c-17.71,0-32.12,14.41-32.12,32.12v168.12c0,17.71,14.41,32.12,32.12,32.12H555.3c17.71,0,32.12-14.41,32.12-32.12V378.51
						c0-17.71-14.41-32.12-32.12-32.12H258.1z"/>
				</g>
			</g>
			<g>
				<g>
					<path class="st2" d="M384.64,520.46c-2.49,0-4.98-0.66-7.25-1.97c-4.54-2.62-7.25-7.32-7.25-12.56V419.2
						c0-5.24,2.71-9.94,7.25-12.56c4.54-2.62,9.97-2.62,14.51,0L467,450c4.54,2.62,7.25,7.32,7.25,12.56s-2.71,9.94-7.25,12.56
						l-75.11,43.36C389.62,519.8,387.13,520.46,384.64,520.46z M384.64,410.68c-1.46,0-2.92,0.38-4.25,1.15
						c-2.66,1.54-4.25,4.29-4.25,7.37v86.73c0,3.07,1.59,5.83,4.25,7.37c2.66,1.54,5.84,1.54,8.51,0L464,469.93
						c2.66-1.54,4.25-4.29,4.25-7.37c0-3.08-1.59-5.83-4.25-7.37l0,0l-75.11-43.36C387.56,411.07,386.1,410.68,384.64,410.68z"/>
				</g>
			</g>
			<g>
				<g>
					<path class="st2" d="M300.91,393.66h-42.04c-6.81,0-12.36-5.54-12.36-12.36v-5.21c0-6.81,5.54-12.36,12.36-12.36h42.04
						c6.81,0,12.36,5.54,12.36,12.36v5.21C313.27,388.12,307.72,393.66,300.91,393.66z M258.87,369.75c-3.5,0-6.36,2.85-6.36,6.36
						v5.21c0,3.5,2.85,6.36,6.36,6.36h42.04c3.5,0,6.36-2.85,6.36-6.36v-5.21c0-3.5-2.85-6.36-6.36-6.36H258.87z"/>
				</g>
			</g>
			<g>
				<g>
					<g>
						<polygon class="st1" points="307.88,320.5 363.8,308.95 311.33,256.48 255.41,268.03 						"/>
					</g>
				</g>
				<g>
					<g>
						<path class="st1" d="M543.86,271.74l16.91-3.49c10.94-2.26,17.98-12.96,15.72-23.91l-4.36-21.09
							c-2.26-10.94-12.96-17.98-23.91-15.72l-56.83,11.74L543.86,271.74z"/>
					</g>
				</g>
				<g>
					<g>
						<polygon class="st1" points="388.57,240.52 335.21,251.54 387.68,304.01 441.03,292.99 						"/>
					</g>
				</g>
				<g>
					<g>
						<polygon class="st1" points="467.51,224.21 412.45,235.58 464.92,288.05 519.98,276.67 						"/>
					</g>
				</g>
				<g>
					<g>
						<path class="st1" d="M231.53,272.97l-4.19,0.87c-10.94,2.26-17.98,12.96-15.72,23.91l4.36,21.09
							c2.26,10.94,12.96,17.98,23.91,15.72l44.11-9.12L231.53,272.97z"/>
					</g>
				</g>
			</g>
			<g>
				<g>
					<g>
						<path class="st2" d="M307.88,323.5c-0.79,0-1.55-0.31-2.12-0.88l-52.47-52.47c-0.78-0.78-1.07-1.93-0.75-2.98
							s1.19-1.85,2.27-2.08l55.92-11.55c0.99-0.2,2.01,0.1,2.73,0.82l52.47,52.47c0.78,0.78,1.07,1.92,0.75,2.98
							s-1.19,1.85-2.27,2.08l-55.92,11.55C308.29,323.48,308.08,323.5,307.88,323.5z M261.47,269.85l47.39,47.39l48.88-10.1
							l-47.39-47.39L261.47,269.85z"/>
					</g>
				</g>
				<g>
					<g>
						<path class="st2" d="M543.86,274.74c-0.79,0-1.55-0.31-2.12-0.88l-52.47-52.47c-0.78-0.78-1.07-1.92-0.75-2.98
							s1.19-1.85,2.27-2.08l56.83-11.74c12.56-2.59,24.86,5.51,27.45,18.05l4.36,21.09c2.59,12.54-5.5,24.86-18.05,27.45
							l-16.91,3.49C544.27,274.72,544.06,274.74,543.86,274.74z M497.45,221.08l47.39,47.39l15.32-3.17
							c9.3-1.92,15.31-11.06,13.39-20.36l-4.36-21.09c-1.92-9.3-11.06-15.31-20.36-13.39L497.45,221.08z"/>
					</g>
				</g>
				<g>
					<g>
						<path class="st2" d="M387.68,307.01c-0.79,0-1.55-0.31-2.12-0.88l-52.47-52.47c-0.78-0.78-1.07-1.92-0.75-2.98
							s1.19-1.85,2.27-2.08l53.35-11.02c0.99-0.2,2.01,0.1,2.73,0.82l52.47,52.47c0.78,0.78,1.07,1.92,0.75,2.98
							s-1.19,1.85-2.27,2.08l-53.35,11.02C388.09,306.99,387.88,307.01,387.68,307.01z M341.27,253.36l47.39,47.39l46.32-9.57
							l-47.39-47.39L341.27,253.36z"/>
					</g>
				</g>
				<g>
					<g>
						<path class="st2" d="M464.92,291.05c-0.79,0-1.55-0.31-2.12-0.88l-52.47-52.47c-0.78-0.78-1.07-1.92-0.75-2.98
							s1.19-1.85,2.27-2.08l55.06-11.38c0.99-0.2,2.01,0.1,2.73,0.82l52.47,52.47c0.78,0.78,1.07,1.93,0.75,2.98
							s-1.19,1.85-2.27,2.08l-55.06,11.38C465.32,291.03,465.12,291.05,464.92,291.05z M418.51,237.4l47.39,47.39l48.03-9.92
							l-47.39-47.39L418.51,237.4z"/>
					</g>
				</g>
				<g>
					<g>
						<path class="st2" d="M235.78,337.97c-10.78,0-20.48-7.57-22.74-18.53l-4.36-21.09c-2.59-12.54,5.5-24.86,18.05-27.45
							l4.19-0.87c0.99-0.2,2.01,0.1,2.73,0.82l52.47,52.47c0.78,0.78,1.07,1.92,0.75,2.98s-1.19,1.85-2.27,2.08l-44.11,9.12
							C238.91,337.81,237.33,337.97,235.78,337.97z M230.55,276.23l-2.61,0.54c-9.3,1.92-15.31,11.06-13.39,20.36l4.36,21.09
							c1.92,9.3,11.07,15.31,20.36,13.39l38.67-7.99L230.55,276.23z"/>
					</g>
				</g>
			</g>
		</g>
	</g>
</g>
<g id="图层_4">
</g>
<g id="图层_5">
</g>
<g id="图层_6">
</g>
<g id="图层_7">
</g>
</svg>
